<?xml version="1.0" standalone="no"?>
<!DOCTYPE svg PUBLIC "-//W3C//DTD SVG 20010904//EN"
 "http://www.w3.org/TR/2001/REC-SVG-20010904/DTD/svg10.dtd">
<svg version="1.0" xmlns="http://www.w3.org/2000/svg"
 width="488.000000pt" height="161.000000pt" viewBox="0 0 488.000000 161.000000"
 preserveAspectRatio="xMidYMid meet">

<g transform="translate(0.000000,161.000000) scale(0.100000,-0.100000)"
fill="#000000" stroke="none">
<path d="M504 1349 c-208 -133 -387 -248 -396 -257 -10 -8 -18 -28 -18 -44 l0
-28 860 0 860 0 0 34 c0 34 -1 35 -394 285 l-394 251 -69 0 -69 0 -380 -241z"/>
<path d="M4500 785 l0 -275 55 0 55 0 0 64 c0 43 5 67 15 76 20 16 27 10 75
-70 l42 -70 60 0 c45 0 57 3 52 13 -4 6 -38 58 -75 114 l-68 101 70 81 70 81
-64 0 -63 0 -55 -66 -54 -66 -3 146 -3 146 -54 0 -55 0 0 -275z"/>
<path d="M2169 1020 c-78 -41 -119 -127 -119 -250 0 -124 50 -224 127 -256 69
-29 196 -12 246 34 25 22 57 86 57 112 0 18 -6 20 -55 20 -47 0 -55 -3 -55
-19 0 -56 -80 -94 -143 -68 -47 20 -67 74 -67 178 0 129 36 185 118 183 36 -1
50 -6 69 -28 13 -15 23 -36 23 -47 0 -16 7 -19 55 -19 46 0 55 3 55 18 -1 26
-34 95 -56 114 -56 50 -187 64 -255 28z"/>
<path d="M2550 771 l0 -261 140 0 c121 0 146 3 180 20 22 11 46 30 54 43 38
59 27 154 -22 184 -15 9 -29 18 -31 20 -2 1 8 12 22 23 60 47 54 148 -10 197
-35 27 -41 28 -185 31 l-148 4 0 -261z m261 150 c24 -29 24 -53 1 -81 -16 -19
-29 -23 -83 -24 l-64 -1 -3 54 c-5 81 -2 84 70 79 48 -4 65 -9 79 -27z m3
-202 c31 -25 34 -66 7 -100 -16 -19 -30 -24 -90 -27 l-71 -4 0 76 0 76 64 0
c49 0 69 -5 90 -21z"/>
<path d="M3220 770 l0 -260 138 0 c156 0 190 10 230 70 20 29 23 44 19 90 -3
47 -9 58 -39 84 l-35 29 31 28 c28 25 31 33 30 83 0 45 -5 61 -25 82 -41 45
-77 54 -219 54 l-130 0 0 -260z m250 155 c26 -23 26 -67 0 -90 -14 -13 -37
-18 -82 -19 l-63 -1 -3 54 c-5 81 -2 84 68 79 39 -3 66 -11 80 -23z m16 -210
c24 -32 18 -81 -13 -105 -22 -17 -38 -20 -87 -18 l-61 3 -3 59 c-5 88 -3 89
79 84 55 -3 74 -8 85 -23z"/>
<path d="M310 620 l0 -320 105 0 105 0 0 320 0 320 -105 0 -105 0 0 -320z"/>
<path d="M670 620 l0 -320 105 0 105 0 0 320 0 320 -105 0 -105 0 0 -320z"/>
<path d="M1030 620 l0 -320 105 0 105 0 0 320 0 320 -105 0 -105 0 0 -320z"/>
<path d="M1380 620 l0 -320 110 0 110 0 0 320 0 320 -110 0 -110 0 0 -320z"/>
<path d="M3754 886 c-33 -15 -74 -60 -74 -82 0 -23 86 -18 120 7 35 26 76 19
92 -16 19 -42 5 -55 -57 -55 -103 0 -165 -46 -165 -124 0 -23 7 -52 16 -64 35
-50 125 -68 187 -36 21 12 32 13 35 5 2 -6 26 -11 57 -11 l54 0 -10 32 c-5 18
-9 88 -9 156 l0 122 -34 37 c-33 36 -37 38 -108 40 -47 2 -84 -2 -104 -11z
m146 -239 c0 -42 -27 -68 -70 -69 -33 -1 -60 21 -60 49 0 29 39 53 85 53 44 0
45 0 45 -33z"/>
<path d="M4080 705 l0 -195 55 0 55 0 0 138 c0 155 7 172 68 172 53 0 62 -25
62 -177 l0 -133 50 0 50 0 0 151 c0 166 -10 207 -56 228 -40 18 -115 13 -151
-9 -33 -20 -33 -20 -33 0 0 17 -7 20 -50 20 l-50 0 0 -195z"/>
<path d="M170 190 l0 -40 783 2 782 3 3 38 3 37 -785 0 -786 0 0 -40z"/>
<path d="M22 48 l3 -33 928 -3 927 -2 0 35 0 35 -931 0 -930 0 3 -32z"/>
</g>
</svg>
