<svg xmlns="http://www.w3.org/2000/svg" version="1.1" xmlns:xlink="http://www.w3.org/1999/xlink" xmlns:svgjs="http://svgjs.dev/svgjs" width="1500" height="1500" viewBox="405 420 690 675">
  <rect width="1500" height="1500" fill="#ffffff">
  </rect>
  <g transform="matrix(0.6666666666666666,0,0,0.6666666666666666,249.39393939393938,438.58569500674764)">
    <svg viewBox="0 0 396 247" data-background-color="#ffffff" preserveAspectRatio="xMidYMid meet" height="935" width="1500" xmlns="http://www.w3.org/2000/svg" xmlns:xlink="http://www.w3.org/1999/xlink">
      <g id="tight-bounds" transform="matrix(1,0,0,1,0.2400000000000091,-0.09999999999999432)">
        <svg viewBox="0 0 395.52 247.2" height="247.2" width="395.52">
          <g>
            <svg>
            </svg>
          </g>
          <g>
            <svg viewBox="0 0 395.52 247.2" height="247.2" width="395.52">
              <g transform="matrix(1,0,0,1,75.54432,98.69313253365972)">
                <svg viewBox="0 0 244.43135999999998 49.81373493268054" height="49.81373493268054" width="244.43135999999998">
                  <g>
                    <svg viewBox="0 0 244.43135999999998 49.81373493268054" height="49.81373493268054" width="244.43135999999998">
                      <g>
                        <svg viewBox="0 0 244.43135999999998 49.81373493268054" height="49.81373493268054" width="244.43135999999998">
                          <g>
                            <svg viewBox="0 0 244.43135999999998 49.81373493268054" height="49.81373493268054" width="244.43135999999998">
                              <g id="textblocktransform">
                                <svg viewBox="0 0 244.43135999999998 49.81373493268054" height="49.81373493268054" width="244.43135999999998" id="textblock">
                                  <g>
                                    <svg viewBox="0 0 244.43135999999998 49.81373493268054" height="49.81373493268054" width="244.43135999999998">
                                      <g transform="matrix(1,0,0,1,0,0)">
                                        <svg width="244.43135999999998" viewBox="1.75 -32.7 163.39 33.300000000000004" height="49.81373493268054" data-palette-color="#8abe53">
                                          <path d="M25.9 0L24.95 0 24.9-0.7Q24.85-1.75 24.1-1.75L24.1-1.75Q23.7-1.75 22.65-1.2L22.65-1.2Q19.4 0.6 16.1 0.6L16.1 0.6Q9.8 0.6 5.78-3.75 1.75-8.1 1.75-15.73 1.75-23.35 5.73-27.73 9.7-32.1 16.1-32.1L16.1-32.1Q19.35-32.1 22.6-30.45L22.6-30.45Q23.65-29.9 24.1-29.9L24.1-29.9Q24.85-29.9 24.9-30.95L24.9-30.95 24.95-31.8 25.9-31.8 25.9-23.15 25-23.15Q24.55-27 22.13-28.83 19.7-30.65 16.1-30.65L16.1-30.65Q11.55-30.65 8.78-26.65 6-22.65 6-15.7 6-8.75 8.8-4.8 11.6-0.85 16.1-0.85L16.1-0.85Q19.7-0.85 22.13-2.68 24.55-4.5 25-8.35L25-8.35 25.9-8.35 25.9 0ZM42.85 0L29.9 0 29.9-0.9 32.25-0.9Q32.95-0.9 32.95-1.5L32.95-1.5 32.95-30Q32.95-30.6 32.25-30.6L32.25-30.6 29.9-30.6 29.9-31.5 41.6-31.5Q45.35-31.5 48.02-29.45 50.7-27.4 50.7-24.15L50.7-24.15Q50.7-21.65 49.37-19.78 48.05-17.9 45.85-16.95L45.85-16.95Q49-16.25 50.97-14.1 52.95-11.95 52.95-8.38 52.95-4.8 50-2.4 47.05 0 42.85 0L42.85 0ZM42.6-16.05L42.6-16.05 37.05-16.05 37.05-1.4 42.6-1.4Q45.6-1.4 47.27-3.6 48.95-5.8 48.95-8.75 48.95-11.7 47.27-13.88 45.6-16.05 42.6-16.05ZM40.55-30.1L40.55-30.1 37.05-30.1 37.05-17.3 40.85-17.3Q43.8-17.3 45.25-19.3 46.7-21.3 46.7-23.98 46.7-26.65 45.2-28.38 43.7-30.1 40.55-30.1ZM80.89 0L67.94 0 67.94-0.9 70.29-0.9Q70.99-0.9 70.99-1.5L70.99-1.5 70.99-30Q70.99-30.6 70.29-30.6L70.29-30.6 67.94-30.6 67.94-31.5 79.64-31.5Q83.39-31.5 86.07-29.45 88.74-27.4 88.74-24.15L88.74-24.15Q88.74-21.65 87.42-19.78 86.09-17.9 83.89-16.95L83.89-16.95Q87.04-16.25 89.02-14.1 90.99-11.95 90.99-8.38 90.99-4.8 88.04-2.4 85.09 0 80.89 0L80.89 0ZM80.64-16.05L80.64-16.05 75.09-16.05 75.09-1.4 80.64-1.4Q83.64-1.4 85.32-3.6 86.99-5.8 86.99-8.75 86.99-11.7 85.32-13.88 83.64-16.05 80.64-16.05ZM78.59-30.1L78.59-30.1 75.09-30.1 75.09-17.3 78.89-17.3Q81.84-17.3 83.29-19.3 84.74-21.3 84.74-23.98 84.74-26.65 83.24-28.38 81.74-30.1 78.59-30.1ZM106.04-11.2L106.04-11.65 106.09-13.4 106.09-15.15Q106.09-21 102.29-21L102.29-21Q100.64-21 99.72-19.88 98.79-18.75 98.79-17.25 98.79-15.75 99.19-14.65L99.19-14.65Q98.34-13.9 96.84-13.9 95.34-13.9 95.34-16.35 95.34-18.8 97.27-20.5 99.19-22.2 102.74-22.2L102.74-22.2Q109.69-22.2 109.69-14L109.69-14 109.69-3.75Q109.69-1.05 111.19-1.05L111.19-1.05Q111.89-1.05 112.42-1.7 112.94-2.35 112.94-3.2 112.94-4.05 112.79-4.8L112.79-4.8 113.74-4.95Q113.94-4.2 113.94-3.3L113.94-3.3Q113.94-1.5 112.87-0.45 111.79 0.6 110.04 0.6 108.29 0.6 107.19-0.83 106.09-2.25 106.09-5.1L106.09-5.1 106.09-6Q105.24-2.6 103.39-1 101.54 0.6 99.12 0.6 96.69 0.6 95.22-0.93 93.74-2.45 93.74-4.98 93.74-7.5 96.09-9.47 98.44-11.45 102.84-11.45L102.84-11.45Q103.79-11.45 106.04-11.2L106.04-11.2ZM100.24-1.3L100.24-1.3Q102.34-1.3 104.02-3.68 105.69-6.05 105.99-10.35L105.99-10.35Q105.49-10.4 104.59-10.4L104.59-10.4Q100.59-10.4 98.87-8.72 97.14-7.05 97.14-4.85L97.14-4.85Q97.14-3.4 97.99-2.35 98.84-1.3 100.24-1.3ZM137.29-14.6L137.29-14.6 137.29-1.5Q137.29-0.9 137.99-0.9L137.99-0.9 140.34-0.9 140.34 0 131.34 0 131.34-0.9 132.99-0.9Q133.69-0.9 133.69-1.5L133.69-1.5 133.69-15.25Q133.69-17.8 132.56-19.03 131.44-20.25 129.59-20.25L129.59-20.25Q126.99-20.25 125.29-17.18 123.59-14.1 123.59-8.35L123.59-8.35 123.59-1.6Q123.59-0.9 124.29-0.9L124.29-0.9 125.94-0.9 125.94 0 116.94 0 116.94-0.9 119.29-0.9Q119.99-0.9 119.99-1.5L119.99-1.5 119.99-20Q119.99-20.7 119.29-20.7L119.29-20.7 116.94-20.7 116.94-21.6 119.39-21.6Q122.39-21.6 123.59-21.9L123.59-21.9 123.59-15.1Q125.29-22.2 131.09-22.2L131.09-22.2Q133.69-22.2 135.49-20.33 137.29-18.45 137.29-14.6ZM146.64-1.6L146.64-1.6 146.64-30.8Q146.64-31.5 145.94-31.5L145.94-31.5 143.59-31.5 143.59-32.4 146.03-32.4Q149.03-32.4 150.24-32.7L150.24-32.7 150.24-1.5Q150.24-0.9 150.94-0.9L150.94-0.9 153.28-0.9 153.28 0 143.59 0 143.59-0.9 145.94-0.9Q146.64-0.9 146.64-1.6ZM156.94-20.7L156.94-21.6 163.64-21.6 163.64-20.7 161.79-20.7Q161.39-20.7 160.89-20.2L160.89-20.2 154.44-12.85 162.39-1.3Q162.64-0.9 163.09-0.9L163.09-0.9 165.14-0.9 165.14 0 162.79 0Q160.39 0 159.19 0.3L159.19 0.3 151.19-11.35 159.49-20.7 156.94-20.7Z" opacity="1" transform="matrix(1,0,0,1,0,0)" fill="#8abe53" class="wordmark-text-0" data-fill-palette-color="primary" id="text-0">
                                          </path>
                                        </svg>
                                      </g>
                                    </svg>
                                  </g>
                                </svg>
                              </g>
                            </svg>
                          </g>
                          <g>
                          </g>
                        </svg>
                      </g>
                    </svg>
                  </g>
                </svg>
              </g>
              <g>
                <path d="M81.174 86.933A122.216 122.216 0 0 1 314.346 86.933L309.853 86.933A117.723 117.723 0 0 0 85.667 86.933L81.174 86.933M81.174 160.267A122.216 122.216 0 0 0 314.346 160.267L309.853 160.267A117.723 117.723 0 0 1 85.667 160.267L81.174 160.267" fill="#8abe53" stroke="transparent" data-fill-palette-color="tertiary">
                </path>
              </g>
            </svg>
          </g>
          <defs>
          </defs>
        </svg>
        <rect width="395.52" height="247.2" fill="none" stroke="none" visibility="hidden">
        </rect>
      </g>
    </svg>
  </g>
</svg>